// ------------------------------
//  Sonatina Symphonic Orchestra
// ------------------------------
//            Marimba
// ------------------------------

<group>
loop_mode=one_shot
xfin_lovel=64
xfin_hivel=127

<region>
sample=../Samples/Marimba/marimba-yarn-ff-c2.flac
key=c2

<region>
sample=../Samples/Marimba/marimba-yarn-ff-c#2.flac
key=c#2

<region>
sample=../Samples/Marimba/marimba-yarn-ff-d2.flac
key=d2

<region>
sample=../Samples/Marimba/marimba-yarn-ff-d#2.flac
key=d#2

<region>
sample=../Samples/Marimba/marimba-yarn-ff-e2.flac
key=e2

<region>
sample=../Samples/Marimba/marimba-yarn-ff-f2.flac
key=f2

<region>
sample=../Samples/Marimba/marimba-yarn-ff-f#2.flac
key=f#2
volume=-2

<region>
sample=../Samples/Marimba/marimba-yarn-ff-g2.flac
key=g2

<region>
sample=../Samples/Marimba/marimba-yarn-ff-g#2.flac
key=g#2

<region>
sample=../Samples/Marimba/marimba-yarn-ff-a2.flac
key=a2

<region>
sample=../Samples/Marimba/marimba-yarn-ff-a#2.flac
key=a#2

<region>
sample=../Samples/Marimba/marimba-yarn-ff-b2.flac
key=b2

<region>
sample=../Samples/Marimba/marimba-yarn-ff-c3.flac
key=c3

<region>
sample=../Samples/Marimba/marimba-yarn-ff-c#3.flac
key=c#3

<region>
sample=../Samples/Marimba/marimba-yarn-ff-d3.flac
key=d3

<region>
sample=../Samples/Marimba/marimba-yarn-ff-d#3.flac
key=d#3

<region>
sample=../Samples/Marimba/marimba-yarn-ff-e3.flac
key=e3

<region>
sample=../Samples/Marimba/marimba-yarn-ff-f3.flac
key=f3

<region>
sample=../Samples/Marimba/marimba-yarn-ff-f#3.flac
key=f#3

<region>
sample=../Samples/Marimba/marimba-yarn-ff-g3.flac
key=g3

<region>
sample=../Samples/Marimba/marimba-yarn-ff-g#3.flac
key=g#3

<region>
sample=../Samples/Marimba/marimba-yarn-ff-a3.flac
key=a3

<region>
sample=../Samples/Marimba/marimba-yarn-ff-a#3.flac
key=a#3

<region>
sample=../Samples/Marimba/marimba-yarn-ff-b3.flac
key=b3

<region>
sample=../Samples/Marimba/marimba-yarn-ff-c4.flac
key=c4

<region>
sample=../Samples/Marimba/marimba-yarn-ff-c#4.flac
key=c#4

<region>
sample=../Samples/Marimba/marimba-yarn-ff-d4.flac
key=d4

<region>
sample=../Samples/Marimba/marimba-yarn-ff-d#4.flac
key=d#4

<region>
sample=../Samples/Marimba/marimba-yarn-ff-e4.flac
key=e4

<region>
sample=../Samples/Marimba/marimba-yarn-ff-f4.flac
key=f4

<region>
sample=../Samples/Marimba/marimba-yarn-ff-f#4.flac
key=f#4

<region>
sample=../Samples/Marimba/marimba-yarn-ff-g4.flac
key=g4

<region>
sample=../Samples/Marimba/marimba-yarn-ff-g#4.flac
key=g#4

<region>
sample=../Samples/Marimba/marimba-yarn-ff-a4.flac
key=a4

<region>
sample=../Samples/Marimba/marimba-yarn-ff-a#4.flac
key=a#4

<region>
sample=../Samples/Marimba/marimba-yarn-ff-b4.flac
key=b4

<region>
sample=../Samples/Marimba/marimba-yarn-ff-c5.flac
key=c5

<region>
sample=../Samples/Marimba/marimba-yarn-ff-c#5.flac
key=c#5

<region>
sample=../Samples/Marimba/marimba-yarn-ff-d5.flac
key=d5

<region>
sample=../Samples/Marimba/marimba-yarn-ff-d#5.flac
key=d#5

<region>
sample=../Samples/Marimba/marimba-yarn-ff-e5.flac
key=e5

<region>
sample=../Samples/Marimba/marimba-yarn-ff-f5.flac
key=f5

<region>
sample=../Samples/Marimba/marimba-yarn-ff-f#5.flac
key=f#5

<region>
sample=../Samples/Marimba/marimba-yarn-ff-g5.flac
key=g5

<region>
sample=../Samples/Marimba/marimba-yarn-ff-g#5.flac
key=g#5

<region>
sample=../Samples/Marimba/marimba-yarn-ff-a5.flac
key=a5

<region>
sample=../Samples/Marimba/marimba-yarn-ff-a#5.flac
key=a#5

<region>
sample=../Samples/Marimba/marimba-yarn-ff-b5.flac
key=b5

<region>
sample=../Samples/Marimba/marimba-yarn-ff-c6.flac
key=c6

<region>
sample=../Samples/Marimba/marimba-yarn-ff-c#6.flac
key=c#6
volume=2

<region>
sample=../Samples/Marimba/marimba-yarn-ff-d6.flac
key=d6

<region>
sample=../Samples/Marimba/marimba-yarn-ff-d#6.flac
key=d#6

<region>
sample=../Samples/Marimba/marimba-yarn-ff-e6.flac
key=e6

<region>
sample=../Samples/Marimba/marimba-yarn-ff-f6.flac
key=f6

<region>
sample=../Samples/Marimba/marimba-yarn-ff-f#6.flac
key=f#6

<region>
sample=../Samples/Marimba/marimba-yarn-ff-g6.flac
key=g6

<region>
sample=../Samples/Marimba/marimba-yarn-ff-g#6.flac
key=g#6

<region>
sample=../Samples/Marimba/marimba-yarn-ff-a6.flac
key=a6

<region>
sample=../Samples/Marimba/marimba-yarn-ff-a#6.flac
key=a#6

<region>
sample=../Samples/Marimba/marimba-yarn-ff-b6.flac
key=b6

<region>
sample=../Samples/Marimba/marimba-yarn-ff-c7.flac
key=c7


<group>
loop_mode=one_shot
ampeg_hold=2
ampeg_sustain=0
ampeg_decay=2
xfin_lovel=0
xfin_hivel=63
xfout_lovel=64
xfout_hivel=127

<region>
sample=../Samples/Marimba/marimba-yarn-mf-c2.flac
key=c2
volume=1

<region>
sample=../Samples/Marimba/marimba-yarn-mf-c#2.flac
key=c#2
volume=1

<region>
sample=../Samples/Marimba/marimba-yarn-mf-d2.flac
key=d2

<region>
sample=../Samples/Marimba/marimba-yarn-mf-d#2.flac
key=d#2
volume=4

<region>
sample=../Samples/Marimba/marimba-yarn-mf-e2.flac
key=e2

<region>
sample=../Samples/Marimba/marimba-yarn-mf-f2.flac
key=f2

<region>
sample=../Samples/Marimba/marimba-yarn-mf-f#2.flac
key=f#2

<region>
sample=../Samples/Marimba/marimba-yarn-mf-g2.flac
key=g2

<region>
sample=../Samples/Marimba/marimba-yarn-mf-g#2.flac
key=g#2

<region>
sample=../Samples/Marimba/marimba-yarn-mf-a2.flac
key=a2

<region>
sample=../Samples/Marimba/marimba-yarn-mf-a#2.flac
key=a#2

<region>
sample=../Samples/Marimba/marimba-yarn-mf-b2.flac
key=b2

<region>
sample=../Samples/Marimba/marimba-yarn-mf-c3.flac
key=c3

<region>
sample=../Samples/Marimba/marimba-yarn-mf-c#3.flac
key=c#3

<region>
sample=../Samples/Marimba/marimba-yarn-mf-d3.flac
key=d3

<region>
sample=../Samples/Marimba/marimba-yarn-mf-d#3.flac
key=d#3

<region>
sample=../Samples/Marimba/marimba-yarn-mf-e3.flac
key=e3

<region>
sample=../Samples/Marimba/marimba-yarn-mf-f3.flac
key=f3

<region>
sample=../Samples/Marimba/marimba-yarn-mf-f#3.flac
key=f#3

<region>
sample=../Samples/Marimba/marimba-yarn-mf-g3.flac
key=g3

<region>
sample=../Samples/Marimba/marimba-yarn-mf-g#3.flac
key=g#3
volume=1

<region>
sample=../Samples/Marimba/marimba-yarn-mf-a3.flac
key=a3

<region>
sample=../Samples/Marimba/marimba-yarn-mf-a#3.flac
key=a#3
volume=1

<region>
sample=../Samples/Marimba/marimba-yarn-mf-b3.flac
key=b3

<region>
sample=../Samples/Marimba/marimba-yarn-mf-c4.flac
key=c4

<region>
sample=../Samples/Marimba/marimba-yarn-mf-c#4.flac
key=c#4

<region>
sample=../Samples/Marimba/marimba-yarn-mf-d4.flac
key=d4

<region>
sample=../Samples/Marimba/marimba-yarn-mf-d#4.flac
key=d#4
volume=2

<region>
sample=../Samples/Marimba/marimba-yarn-mf-e4.flac
key=e4

<region>
sample=../Samples/Marimba/marimba-yarn-mf-f4.flac
key=f4

<region>
sample=../Samples/Marimba/marimba-yarn-mf-f#4.flac
key=f#4

<region>
sample=../Samples/Marimba/marimba-yarn-mf-g4.flac
key=g4

<region>
sample=../Samples/Marimba/marimba-yarn-mf-g#4.flac
key=g#4

<region>
sample=../Samples/Marimba/marimba-yarn-mf-a4.flac
key=a4

<region>
sample=../Samples/Marimba/marimba-yarn-mf-a#4.flac
key=a#4

<region>
sample=../Samples/Marimba/marimba-yarn-mf-b4.flac
key=b4

<region>
sample=../Samples/Marimba/marimba-yarn-mf-c5.flac
key=c5

<region>
sample=../Samples/Marimba/marimba-yarn-mf-c#5.flac
key=c#5

<region>
sample=../Samples/Marimba/marimba-yarn-mf-d5.flac
key=d5

<region>
sample=../Samples/Marimba/marimba-yarn-mf-d#5.flac
key=d#5

<region>
sample=../Samples/Marimba/marimba-yarn-mf-e5.flac
key=e5

<region>
sample=../Samples/Marimba/marimba-yarn-mf-f5.flac
key=f5

<region>
sample=../Samples/Marimba/marimba-yarn-mf-f#5.flac
key=f#5

<region>
sample=../Samples/Marimba/marimba-yarn-mf-g5.flac
key=g5

<region>
sample=../Samples/Marimba/marimba-yarn-mf-g#5.flac
key=g#5

<region>
sample=../Samples/Marimba/marimba-yarn-mf-a5.flac
key=a5

<region>
sample=../Samples/Marimba/marimba-yarn-mf-a#5.flac
key=a#5

<region>
sample=../Samples/Marimba/marimba-yarn-mf-b5.flac
key=b5

<region>
sample=../Samples/Marimba/marimba-yarn-mf-c6.flac
key=c6

<region>
sample=../Samples/Marimba/marimba-yarn-mf-c#6.flac
key=c#6

<region>
sample=../Samples/Marimba/marimba-yarn-mf-d6.flac
key=d6

<region>
sample=../Samples/Marimba/marimba-yarn-mf-d#6.flac
key=d#6

<region>
sample=../Samples/Marimba/marimba-yarn-mf-e6.flac
key=e6

<region>
sample=../Samples/Marimba/marimba-yarn-mf-f6.flac
key=f6

<region>
sample=../Samples/Marimba/marimba-yarn-mf-f#6.flac
key=f#6

<region>
sample=../Samples/Marimba/marimba-yarn-mf-g6.flac
key=g6

<region>
sample=../Samples/Marimba/marimba-yarn-mf-g#6.flac
key=g#6

<region>
sample=../Samples/Marimba/marimba-yarn-mf-a6.flac
key=a6

<region>
sample=../Samples/Marimba/marimba-yarn-mf-a#6.flac
key=a#6

<region>
sample=../Samples/Marimba/marimba-yarn-mf-b6.flac
key=b6
volume=4

<region>
sample=../Samples/Marimba/marimba-yarn-mf-c7.flac
key=c7



<group>
loop_mode=one_shot
ampeg_attack=0.03
ampeg_hold=1.5
ampeg_sustain=0
ampeg_decay=1
xfout_lovel=0
xfout_hivel=63

<region>
sample=../Samples/Marimba/marimba-yarn-pp-c2.flac
key=c2
volume=2

<region>
sample=../Samples/Marimba/marimba-yarn-pp-c#2.flac
key=c#2

<region>
sample=../Samples/Marimba/marimba-yarn-pp-d2.flac
key=d2

<region>
sample=../Samples/Marimba/marimba-yarn-pp-d#2.flac
key=d#2

<region>
sample=../Samples/Marimba/marimba-yarn-pp-e2.flac
key=e2

<region>
sample=../Samples/Marimba/marimba-yarn-pp-f2.flac
key=f2

<region>
sample=../Samples/Marimba/marimba-yarn-pp-f#2.flac
key=f#2

<region>
sample=../Samples/Marimba/marimba-yarn-pp-g2.flac
key=g2

<region>
sample=../Samples/Marimba/marimba-yarn-pp-g#2.flac
key=g#2

<region>
sample=../Samples/Marimba/marimba-yarn-pp-a2.flac
key=a2

<region>
sample=../Samples/Marimba/marimba-yarn-pp-a#2.flac
key=a#2

<region>
sample=../Samples/Marimba/marimba-yarn-pp-b2.flac
key=b2

<region>
sample=../Samples/Marimba/marimba-yarn-pp-c3.flac
key=c3

<region>
sample=../Samples/Marimba/marimba-yarn-pp-c#3.flac
key=c#3
volume=-2

<region>
sample=../Samples/Marimba/marimba-yarn-pp-d3.flac
key=d3

<region>
sample=../Samples/Marimba/marimba-yarn-pp-d#3.flac
key=d#3

<region>
sample=../Samples/Marimba/marimba-yarn-pp-e3.flac
key=e3

<region>
sample=../Samples/Marimba/marimba-yarn-pp-f3.flac
key=f3

<region>
sample=../Samples/Marimba/marimba-yarn-pp-f#3.flac
key=f#3

<region>
sample=../Samples/Marimba/marimba-yarn-pp-g3.flac
key=g3

<region>
sample=../Samples/Marimba/marimba-yarn-pp-g#3.flac
key=g#3

<region>
sample=../Samples/Marimba/marimba-yarn-pp-a3.flac
key=a3

<region>
sample=../Samples/Marimba/marimba-yarn-pp-a#3.flac
key=a#3

<region>
sample=../Samples/Marimba/marimba-yarn-pp-b3.flac
key=b3

<region>
sample=../Samples/Marimba/marimba-yarn-pp-c4.flac
key=c4

<region>
sample=../Samples/Marimba/marimba-yarn-pp-c#4.flac
key=c#4

<region>
sample=../Samples/Marimba/marimba-yarn-pp-d4.flac
key=d4

<region>
sample=../Samples/Marimba/marimba-yarn-pp-d#4.flac
key=d#4

<region>
sample=../Samples/Marimba/marimba-yarn-pp-e4.flac
key=e4

<region>
sample=../Samples/Marimba/marimba-yarn-pp-f4.flac
key=f4

<region>
sample=../Samples/Marimba/marimba-yarn-pp-f#4.flac
key=f#4
volume=-2

<region>
sample=../Samples/Marimba/marimba-yarn-pp-g4.flac
key=g4

<region>
sample=../Samples/Marimba/marimba-yarn-pp-g#4.flac
key=g#4

<region>
sample=../Samples/Marimba/marimba-yarn-pp-a4.flac
key=a4

<region>
sample=../Samples/Marimba/marimba-yarn-pp-a#4.flac
key=a#4

<region>
sample=../Samples/Marimba/marimba-yarn-pp-b4.flac
key=b4

<region>
sample=../Samples/Marimba/marimba-yarn-pp-c5.flac
key=c5

<region>
sample=../Samples/Marimba/marimba-yarn-pp-c#5.flac
key=c#5

<region>
sample=../Samples/Marimba/marimba-yarn-pp-d5.flac
key=d5

<region>
sample=../Samples/Marimba/marimba-yarn-pp-d#5.flac
key=d#5

<region>
sample=../Samples/Marimba/marimba-yarn-pp-e5.flac
key=e5

<region>
sample=../Samples/Marimba/marimba-yarn-pp-f5.flac
key=f5

<region>
sample=../Samples/Marimba/marimba-yarn-pp-f#5.flac
key=f#5

<region>
sample=../Samples/Marimba/marimba-yarn-pp-g5.flac
key=g5

<region>
sample=../Samples/Marimba/marimba-yarn-pp-g#5.flac
key=g#5

<region>
sample=../Samples/Marimba/marimba-yarn-pp-a5.flac
key=a5

<region>
sample=../Samples/Marimba/marimba-yarn-pp-a#5.flac
key=a#5

<region>
sample=../Samples/Marimba/marimba-yarn-pp-b5.flac
key=b5

<region>
sample=../Samples/Marimba/marimba-yarn-pp-c6.flac
key=c6

<region>
sample=../Samples/Marimba/marimba-yarn-pp-c#6.flac
key=c#6

<region>
sample=../Samples/Marimba/marimba-yarn-pp-d6.flac
key=d6

<region>
sample=../Samples/Marimba/marimba-yarn-pp-d#6.flac
key=d#6

<region>
sample=../Samples/Marimba/marimba-yarn-pp-e6.flac
key=e6
volume=-1

<region>
sample=../Samples/Marimba/marimba-yarn-pp-f6.flac
key=f6
volume=-4

<region>
sample=../Samples/Marimba/marimba-yarn-pp-f#6.flac
key=f#6

<region>
sample=../Samples/Marimba/marimba-yarn-pp-g6.flac
key=g6
volume=3

<region>
sample=../Samples/Marimba/marimba-yarn-pp-g#6.flac
key=g#6
volume=-3

<region>
sample=../Samples/Marimba/marimba-yarn-pp-a6.flac
key=a6
volume=1

<region>
sample=../Samples/Marimba/marimba-yarn-pp-a#6.flac
key=a#6

<region>
sample=../Samples/Marimba/marimba-yarn-pp-b6.flac
key=b6
volume=1

<region>
sample=../Samples/Marimba/marimba-yarn-pp-c7.flac
key=c7
volume=1
